<svg width="81" height="79" viewBox="0 0 81 79" fill="none" xmlns="http://www.w3.org/2000/svg">
<mask id="path-1-inside-1" fill="white">
<path d="M17.1965 56.0337L8.05518 64.3205L11.4081 68.0302L20.3409 59.9324C24.9055 64.6816 31.0866 67.8615 37.9976 68.5837V79H42.9976V68.6723C49.3242 68.2386 55.087 65.7505 59.6262 61.869L68.4236 70.5249L71.9251 66.9556L63.1307 58.3026C66.8079 53.847 69.1688 48.2616 69.6167 42.144L80.9951 41.9998L80.9317 37.0002L69.5532 37.1445C68.9613 31.1648 66.5385 25.7244 62.8542 21.3933L70.8263 14.1665L67.4734 10.4568L59.2908 17.8745C54.8047 14.1549 49.1694 11.7767 42.9976 11.3536V0H37.9976V11.4422C32.0579 12.063 26.6573 14.499 22.3588 18.1866L13.5313 9.50107L10.0298 13.0704L18.8599 21.7585C15.2018 26.2052 12.8529 31.7726 12.4038 37.869L0 38.0262L0.0633545 43.0258L12.4651 42.8686C12.9423 47.7111 14.6201 52.2004 17.1965 56.0337Z"/>
</mask>
<path d="M17.1965 56.0337L20.5546 59.7382L23.7585 56.8338L21.3463 53.2446L17.1965 56.0337ZM8.05518 64.3205L4.69704 60.616L0.998072 63.9692L4.34577 67.6731L8.05518 64.3205ZM11.4081 68.0302L7.69867 71.3828L11.0563 75.0977L14.7662 71.7346L11.4081 68.0302ZM20.3409 59.9324L23.9458 56.4676L20.5807 52.9664L16.9827 56.228L20.3409 59.9324ZM37.9976 68.5837H42.9976V64.0791L38.5173 63.6108L37.9976 68.5837ZM37.9976 79H32.9976V84H37.9976V79ZM42.9976 79V84H47.9976V79H42.9976ZM42.9976 68.6723L42.6556 63.684L37.9976 64.0033V68.6723H42.9976ZM59.6262 61.869L63.1329 58.3049L59.863 55.0877L56.3766 58.0689L59.6262 61.869ZM68.4236 70.5249L64.9168 74.089L68.4862 77.601L71.9929 74.0264L68.4236 70.5249ZM71.9251 66.9556L75.4944 70.4571L78.9907 66.8931L75.4319 63.3915L71.9251 66.9556ZM63.1307 58.3026L59.2744 55.1201L56.3582 58.6535L59.6239 61.8667L63.1307 58.3026ZM69.6167 42.144L69.5533 37.1444L64.9651 37.2026L64.63 41.7789L69.6167 42.144ZM80.9951 41.9998L81.0585 46.9994L86.0581 46.936L85.9947 41.9364L80.9951 41.9998ZM80.9317 37.0002L85.9313 36.9368L85.8679 31.9372L80.8683 32.0006L80.9317 37.0002ZM69.5532 37.1445L64.5775 37.637L65.0294 42.2022L69.6166 42.1441L69.5532 37.1445ZM62.8542 21.3933L59.4961 17.6889L55.9066 20.9428L59.0458 24.6331L62.8542 21.3933ZM70.8263 14.1665L74.1844 17.8709L77.8834 14.5178L74.5357 10.8138L70.8263 14.1665ZM67.4734 10.4568L71.1828 7.10418L67.8252 3.38931L64.1153 6.7524L67.4734 10.4568ZM59.2908 17.8745L56.0994 21.7235L59.4368 24.4908L62.6489 21.579L59.2908 17.8745ZM42.9976 11.3536H37.9976V16.0226L42.6557 16.3419L42.9976 11.3536ZM42.9976 0H47.9976V-5H42.9976V0ZM37.9976 0V-5H32.9976V0H37.9976ZM37.9976 11.4422L38.5173 16.4151L42.9976 15.9469V11.4422H37.9976ZM22.3588 18.1866L18.8521 21.7506L22.1272 24.973L25.6144 21.9815L22.3588 18.1866ZM13.5313 9.50107L17.0381 5.93698L13.4687 2.42505L9.96205 5.99959L13.5313 9.50107ZM10.0298 13.0704L6.46052 9.56889L2.96421 13.1329L6.52303 16.6345L10.0298 13.0704ZM18.8599 21.7585L22.7213 24.935L25.6272 21.4025L22.3667 18.1944L18.8599 21.7585ZM12.4038 37.869L12.4672 42.8686L17.0533 42.8104L17.3903 38.2363L12.4038 37.869ZM0 38.0262L-0.0633733 33.0266L-5.06295 33.09L-4.9996 38.0895L0 38.0262ZM0.0633545 43.0258L-4.93624 43.0891L-4.87289 48.0888L0.126738 48.0254L0.0633545 43.0258ZM12.4651 42.8686L17.441 42.3782L16.9909 37.8108L12.4017 37.869L12.4651 42.8686ZM13.8383 52.3293L4.69704 60.616L11.4133 68.0249L20.5546 59.7382L13.8383 52.3293ZM4.34577 67.6731L7.69867 71.3828L15.1175 64.6775L11.7646 60.9678L4.34577 67.6731ZM14.7662 71.7346L23.699 63.6368L16.9827 56.228L8.04994 64.3257L14.7662 71.7346ZM16.736 63.3972C22.0888 68.9665 29.3505 72.7072 37.4778 73.5567L38.5173 63.6108C32.8227 63.0157 27.7221 60.3968 23.9458 56.4676L16.736 63.3972ZM32.9976 68.5837V79H42.9976V68.5837H32.9976ZM37.9976 84H42.9976V74H37.9976V84ZM47.9976 79V68.6723H37.9976V79H47.9976ZM43.3395 73.6606C50.7752 73.1509 57.5491 70.224 62.8757 65.6691L56.3766 58.0689C52.625 61.2771 47.8732 63.3264 42.6556 63.684L43.3395 73.6606ZM56.1194 65.4331L64.9168 74.089L71.9303 66.9609L63.1329 58.3049L56.1194 65.4331ZM71.9929 74.0264L75.4944 70.4571L68.3558 63.4541L64.8543 67.0235L71.9929 74.0264ZM75.4319 63.3915L66.6374 54.7386L59.6239 61.8667L68.4184 70.5197L75.4319 63.3915ZM66.987 61.4852C71.302 56.2568 74.0773 49.6941 74.6033 42.5092L64.63 41.7789C64.2603 46.8291 62.3138 51.4372 59.2744 55.1201L66.987 61.4852ZM69.6801 47.1436L81.0585 46.9994L80.9317 37.0002L69.5533 37.1444L69.6801 47.1436ZM85.9947 41.9364L85.9313 36.9368L75.9321 37.0636L75.9955 42.0632L85.9947 41.9364ZM80.8683 32.0006L69.4898 32.1449L69.6166 42.1441L80.9951 41.9998L80.8683 32.0006ZM74.5289 36.6519C73.8335 29.6267 70.9852 23.235 66.6626 18.1536L59.0458 24.6331C62.0918 28.2138 64.0891 32.703 64.5775 37.637L74.5289 36.6519ZM66.2123 25.0978L74.1844 17.8709L67.4682 10.4621L59.4961 17.6889L66.2123 25.0978ZM74.5357 10.8138L71.1828 7.10418L63.764 13.8095L67.1169 17.5192L74.5357 10.8138ZM64.1153 6.7524L55.9326 14.1701L62.6489 21.579L70.8315 14.1613L64.1153 6.7524ZM62.4822 14.0255C57.2173 9.66012 50.5929 6.86252 43.3396 6.36531L42.6557 16.3419C47.7459 16.6908 52.3921 18.6497 56.0994 21.7235L62.4822 14.0255ZM47.9976 11.3536V0H37.9976V11.3536H47.9976ZM42.9976 -5H37.9976V5H42.9976V-5ZM32.9976 0V11.4422H42.9976V0H32.9976ZM37.4779 6.46928C30.4943 7.19914 24.147 10.0648 19.1033 14.3916L25.6144 21.9815C29.1677 18.9332 33.6215 16.9268 38.5173 16.4151L37.4779 6.46928ZM25.8656 14.6225L17.0381 5.93698L10.0246 13.0652L18.8521 21.7506L25.8656 14.6225ZM9.96205 5.99959L6.46052 9.56889L13.599 16.5719L17.1006 13.0026L9.96205 5.99959ZM6.52303 16.6345L15.3532 25.3226L22.3667 18.1944L13.5365 9.50629L6.52303 16.6345ZM14.9986 18.582C10.706 23.8 7.94478 30.3415 7.41732 37.5016L17.3903 38.2363C17.761 33.2036 19.6976 28.6105 22.7213 24.935L14.9986 18.582ZM12.3404 32.8694L-0.0633733 33.0266L0.0633733 43.0258L12.4672 42.8686L12.3404 32.8694ZM-4.9996 38.0895L-4.93624 43.0891L5.06295 42.9624L4.9996 37.9628L-4.9996 38.0895ZM0.126738 48.0254L12.5285 47.8682L12.4017 37.869L-2.93606e-05 38.0262L0.126738 48.0254ZM7.48919 43.3589C8.04961 49.0463 10.0217 54.322 13.0466 58.8228L21.3463 53.2446C19.2185 50.0788 17.8349 46.3759 17.441 42.3782L7.48919 43.3589Z" fill="#828282" fill-opacity="0.99" mask="url(#path-1-inside-1)"/>
</svg>
