<svg width="81" height="79" viewBox="0 0 81 79" fill="none" xmlns="http://www.w3.org/2000/svg">
<path d="M70.1405 65.2049L71.9251 66.9556L70.1717 68.7376L70.1405 65.2049ZM70.1405 65.2049L68.3923 66.9869L70.1405 65.2049ZM18.8755 57.8859L20.4775 56.4337L19.2714 54.6392C16.9193 51.1396 15.3886 47.0435 14.953 42.6234L14.728 40.3397L14.7286 40.3397L14.8971 38.0526C15.307 32.4881 17.4497 27.4079 20.7906 23.3467L22.2436 21.5805L20.6133 19.9764L13.5626 13.0391L13.5626 13.0391L20.6055 19.9686L22.243 21.5798L23.9866 20.084C27.9125 16.7161 32.8397 14.4949 38.2575 13.9287L40.4976 13.6945V13.6881L42.8266 13.8478C48.4576 14.2337 53.5984 16.4023 57.6951 19.799L59.3638 21.1826L60.9698 19.7267L67.2975 13.9906L67.2977 13.9909L61.1751 19.5411L59.3804 21.1681L60.95 23.0132C64.3152 26.9691 66.5252 31.9339 67.0654 37.3907L67.2913 39.6733L67.2909 39.6733L67.1234 41.9615C66.7145 47.5454 64.5609 52.6421 61.2025 56.7113L59.7444 58.4781L61.3773 60.0847L61.3795 60.087L59.7446 58.4783L58.0014 59.969C53.856 63.5138 48.5987 65.7825 42.8266 66.1782L40.4976 66.3378V66.3314L38.2574 66.0973C31.9546 65.4386 26.3138 62.5392 22.1433 58.2L20.4608 56.4494L18.6618 58.0802L11.584 64.4964L11.5837 64.4961L18.8755 57.8859Z" stroke="#828282" stroke-opacity="0.99" stroke-width="5"/>
</svg>
