<svg width="81" height="77" viewBox="0 0 81 77" fill="none" xmlns="http://www.w3.org/2000/svg">
<path d="M47.6407 61.3424L45.2476 60.619V60.619L47.6407 61.3424ZM45.5571 68.2342L43.1641 67.5107L45.5571 68.2342ZM37.9515 68.3942L35.591 69.2176L37.9515 68.3942ZM35.4358 61.1825L33.0753 62.0059L35.4358 61.1825ZM2.5 54.5V4H-2.5V54.5H2.5ZM4 2.5H71V-2.5H4V2.5ZM72.5 4V54.5H77.5V4H72.5ZM71 56H51.4695V61H71V56ZM45.2476 60.619L43.1641 67.5107L47.9501 68.9577L50.0337 62.0659L45.2476 60.619ZM40.312 67.5707L37.7963 60.3591L33.0753 62.0059L35.591 69.2176L40.312 67.5707ZM31.659 56H4V61H31.659V56ZM37.7963 60.3591C36.8857 57.7487 34.4236 56 31.659 56V61C32.2969 61 32.8651 61.4036 33.0753 62.0059L37.7963 60.3591ZM43.1641 67.5107C42.7438 68.901 40.7903 68.9421 40.312 67.5707L35.591 69.2176C37.6639 75.1601 46.1288 74.9821 47.9501 68.9577L43.1641 67.5107ZM51.4695 56C48.6042 56 46.0768 57.8762 45.2476 60.619L50.0337 62.0659C50.225 61.433 50.8083 61 51.4695 61V56ZM72.5 54.5C72.5 55.3284 71.8284 56 71 56V61C74.5898 61 77.5 58.0899 77.5 54.5H72.5ZM71 2.5C71.8284 2.5 72.5 3.17157 72.5 4H77.5C77.5 0.410148 74.5899 -2.5 71 -2.5V2.5ZM2.5 4C2.5 3.17157 3.17157 2.5 4 2.5V-2.5C0.410149 -2.5 -2.5 0.410149 -2.5 4H2.5ZM-2.5 54.5C-2.5 58.0898 0.410147 61 4 61V56C3.17157 56 2.5 55.3284 2.5 54.5H-2.5ZM8.5 46H32V41H8.5V46ZM0 31.5H75V26.5H0V31.5Z" transform="translate(3 3)" fill="#DF172F"/>
</svg>
