<svg width="61" height="66" viewBox="0 0 61 66" fill="none" xmlns="http://www.w3.org/2000/svg">
<path d="M19.3882 4.3371C10.8668 8.45197 5 17.1516 5 27.2011C5 41.2099 16.4004 52.5958 30.5 52.5958C44.5996 52.5958 56 41.2099 56 27.2011C56 17.1516 50.1332 8.45197 41.6118 4.3371L44.1245 0C54.1299 4.98666 61 15.2943 61 27.2011C61 43.9876 47.3447 57.5958 30.5 57.5958C13.6553 57.5958 0 43.9876 0 27.2011C0 15.2943 6.87012 4.98666 16.8755 0L19.3882 4.3371Z" transform="translate(0 8)" fill="#828282"/>
<path d="M0 0H29.0132" transform="translate(30) rotate(90)" stroke="#828282" stroke-opacity="0.99" stroke-width="5"/>
</svg>
