<svg width="66" height="47" viewBox="0 0 66 47" fill="none" xmlns="http://www.w3.org/2000/svg">
<path d="M0 0V-2.5H-2.5V0H0ZM60 0H62.5V-2.5H60V0ZM60 41V43.5H62.5V41H60ZM0 41H-2.5V43.5H0V41ZM13.1675 25.9783L15.6675 25.9783L15.6675 25.9783L13.1675 25.9783ZM44.699 28.1243L47.199 28.1243L47.199 28.1243L44.699 28.1243ZM0 2.5H60V-2.5H0V2.5ZM57.5 0V41H62.5V0H57.5ZM60 38.5H0V43.5H60V38.5ZM2.5 41V0H-2.5V41H2.5ZM13.1675 25.9783C15.6675 25.9783 15.6675 25.9792 15.6675 25.98C15.6675 25.9802 15.6675 25.981 15.6675 25.9815C15.6675 25.9824 15.6675 25.9831 15.6675 25.9836C15.6675 25.9847 15.6675 25.9851 15.6675 25.9848C15.6675 25.9842 15.6675 25.9809 15.6676 25.975C15.6677 25.9631 15.6681 25.9408 15.6689 25.9088C15.6705 25.8447 15.674 25.7419 15.6813 25.6061C15.696 25.3338 15.7261 24.9328 15.7874 24.447C15.9116 23.4625 16.1559 22.1944 16.6224 20.9618C17.0925 19.7196 17.7387 18.6446 18.5889 17.8958C19.3884 17.1916 20.4759 16.6755 22.1014 16.6755V11.6755C19.26 11.6755 16.9973 12.6348 15.2841 14.1436C13.6216 15.6079 12.5927 17.4835 11.9461 19.192C11.2958 20.9102 10.9817 22.5927 10.8267 23.8212C10.7484 24.442 10.7088 24.9631 10.6886 25.3362C10.6785 25.5231 10.6732 25.6739 10.6705 25.7827C10.6691 25.8371 10.6684 25.8811 10.668 25.9139C10.6678 25.9303 10.6676 25.944 10.6676 25.9547C10.6675 25.9601 10.6675 25.9648 10.6675 25.9687C10.6675 25.9707 10.6675 25.9724 10.6675 25.9741C10.6675 25.9748 10.6675 25.9759 10.6675 25.9763C10.6675 25.9773 10.6675 25.9783 13.1675 25.9783ZM22.1014 16.6755C23.727 16.6755 24.8145 17.1916 25.614 17.8958C26.4641 18.6446 27.1103 19.7196 27.5805 20.9618C28.0469 22.1944 28.2912 23.4625 28.4154 24.447C28.4767 24.9328 28.5068 25.3338 28.5216 25.6061C28.5289 25.7419 28.5324 25.8447 28.534 25.9088C28.5348 25.9408 28.5351 25.9631 28.5353 25.975C28.5353 25.9809 28.5354 25.9842 28.5354 25.9848C28.5354 25.9851 28.5354 25.9847 28.5354 25.9836C28.5354 25.9831 28.5354 25.9824 28.5354 25.9815C28.5354 25.981 28.5354 25.9802 28.5354 25.98C28.5354 25.9792 28.5354 25.9783 31.0354 25.9783C33.5354 25.9783 33.5354 25.9773 33.5354 25.9763C33.5354 25.9759 33.5354 25.9748 33.5354 25.974C33.5354 25.9724 33.5354 25.9707 33.5353 25.9687C33.5353 25.9648 33.5353 25.9601 33.5353 25.9547C33.5352 25.944 33.5351 25.9303 33.5349 25.9139C33.5345 25.8811 33.5338 25.8371 33.5324 25.7827C33.5296 25.6739 33.5244 25.5231 33.5143 25.3362C33.4941 24.9631 33.4544 24.442 33.3761 23.8212C33.2211 22.5927 32.907 20.9102 32.2568 19.192C31.6102 17.4835 30.5812 15.6079 28.9187 14.1436C27.2056 12.6348 24.9429 11.6755 22.1014 11.6755V16.6755ZM31.0354 28.1243C33.5354 28.1243 33.5354 28.1252 33.5354 28.1261C33.5354 28.1264 33.5354 28.1272 33.5354 28.1278C33.5354 28.1288 33.5354 28.1297 33.5354 28.1305C33.5353 28.1321 33.5353 28.1332 33.5353 28.1338C33.5353 28.135 33.5353 28.1343 33.5354 28.1317C33.5354 28.1265 33.5356 28.1138 33.5361 28.0942C33.5372 28.0548 33.5395 27.9878 33.5447 27.8973C33.555 27.7156 33.5764 27.4433 33.6204 27.1118C33.7101 26.4357 33.8851 25.5785 34.2122 24.7567C34.5415 23.9291 34.978 23.2545 35.5229 22.7981C36.0228 22.3794 36.7321 22.0404 37.8672 22.0404V17.0404C35.5864 17.0404 33.7337 17.7745 32.3122 18.9652C30.9356 20.1182 30.0911 21.5896 29.5665 22.908C29.0396 24.2321 28.7876 25.5209 28.6638 26.4543C28.601 26.9275 28.5691 27.3258 28.5527 27.6135C28.5445 27.7577 28.5402 27.8752 28.5379 27.9616C28.5368 28.0048 28.5361 28.0403 28.5358 28.0675C28.5356 28.0812 28.5355 28.0928 28.5354 28.1022C28.5354 28.107 28.5354 28.1112 28.5354 28.1149C28.5354 28.1167 28.5354 28.1184 28.5354 28.12C28.5354 28.1207 28.5354 28.1218 28.5354 28.1222C28.5354 28.1232 28.5354 28.1243 31.0354 28.1243ZM37.8672 22.0404C39.0023 22.0404 39.7116 22.3794 40.2115 22.7981C40.7564 23.2545 41.1929 23.9291 41.5222 24.7567C41.8493 25.5785 42.0243 26.4357 42.114 27.1118C42.158 27.4433 42.1794 27.7156 42.1897 27.8973C42.1949 27.9878 42.1972 28.0548 42.1982 28.0942C42.1988 28.1138 42.199 28.1265 42.199 28.1317C42.1991 28.1343 42.1991 28.135 42.1991 28.1338C42.199 28.1332 42.199 28.1321 42.199 28.1305C42.199 28.1297 42.199 28.1288 42.199 28.1278C42.199 28.1272 42.199 28.1264 42.199 28.1261C42.199 28.1252 42.199 28.1243 44.699 28.1243C47.199 28.1243 47.199 28.1232 47.199 28.1222C47.199 28.1218 47.199 28.1207 47.199 28.12C47.199 28.1184 47.199 28.1167 47.199 28.1149C47.199 28.1112 47.199 28.107 47.199 28.1022C47.1989 28.0928 47.1988 28.0812 47.1986 28.0675C47.1983 28.0403 47.1976 28.0048 47.1965 27.9616C47.1942 27.8752 47.1899 27.7577 47.1817 27.6135C47.1653 27.3258 47.1333 26.9275 47.0706 26.4543C46.9468 25.5209 46.6948 24.2321 46.1679 22.908C45.6432 21.5896 44.7988 20.1182 43.4222 18.9652C42.0007 17.7745 40.148 17.0404 37.8672 17.0404V22.0404ZM10.6675 25.9783V41H15.6675V25.9783H10.6675ZM33.5354 28.1243V25.9783H28.5354V28.1243H33.5354ZM42.199 28.1243V41H47.199V28.1243H42.199Z" transform="translate(3 3)" fill="#2458DE"/>
</svg>
