<svg width="106" height="66" viewBox="0 0 106 66" fill="none" xmlns="http://www.w3.org/2000/svg">
<path d="M0 0V-2.5H-2.5V0H0ZM100 0H102.5V-2.5H100V0ZM100 60V62.5H102.5V60H100ZM0 60H-2.5V62.5H0V60ZM21.9458 38.017H24.4458H21.9458ZM74.4984 41.1574H76.9984V41.1574L74.4984 41.1574ZM0 2.5H100V-2.5H0V2.5ZM97.5 0V60H102.5V0H97.5ZM100 57.5H0V62.5H100V57.5ZM2.5 60V0H-2.5V60H2.5ZM21.9458 38.017C24.4458 38.017 24.4458 38.018 24.4458 38.0189C24.4458 38.0192 24.4458 38.02 24.4458 38.0205C24.4458 38.0214 24.4458 38.022 24.4458 38.0224C24.4458 38.0231 24.4458 38.0229 24.4458 38.0216C24.4458 38.0191 24.4459 38.0126 24.446 38.0022C24.4463 37.9815 24.447 37.9454 24.4484 37.8949C24.4513 37.7938 24.4574 37.6356 24.4702 37.4285C24.4957 37.0136 24.5477 36.407 24.6531 35.6738C24.8656 34.1944 25.2861 32.2652 26.1029 30.3704C26.9195 28.4758 28.0911 26.7093 29.7569 25.4211C31.3878 24.1598 33.6343 23.2447 36.8357 23.2447V18.2447C32.5922 18.2447 29.2549 19.4886 26.6981 21.4659C24.1761 23.4162 22.5558 25.9678 21.5112 28.3913C20.4667 30.8145 19.9567 33.2034 19.7039 34.9627C19.5766 35.8487 19.5122 36.5916 19.4796 37.1212C19.4633 37.3864 19.4549 37.5993 19.4505 37.7512C19.4483 37.8272 19.4471 37.8881 19.4465 37.9327C19.4462 37.955 19.446 37.9733 19.4459 37.9874C19.4459 37.9944 19.4459 38.0005 19.4458 38.0054C19.4458 38.0079 19.4458 38.0101 19.4458 38.012C19.4458 38.013 19.4458 38.0142 19.4458 38.0147C19.4458 38.0159 19.4458 38.017 21.9458 38.017ZM36.8357 23.2447C40.0371 23.2447 42.2836 24.1598 43.9146 25.4211C45.5804 26.7093 46.7519 28.4758 47.5686 30.3704C48.3853 32.2652 48.8058 34.1944 49.0184 35.6738C49.1237 36.407 49.1757 37.0136 49.2012 37.4285C49.214 37.6356 49.2201 37.7938 49.223 37.8949C49.2244 37.9454 49.2251 37.9815 49.2254 38.0022C49.2255 38.0126 49.2256 38.0191 49.2256 38.0216C49.2256 38.0229 49.2256 38.0231 49.2256 38.0224C49.2256 38.022 49.2256 38.0214 49.2256 38.0205C49.2256 38.02 49.2256 38.0192 49.2256 38.0189C49.2256 38.018 49.2256 38.017 51.7256 38.017C54.2256 38.017 54.2256 38.0159 54.2256 38.0147C54.2256 38.0142 54.2256 38.013 54.2256 38.012C54.2256 38.0101 54.2256 38.0079 54.2256 38.0054C54.2256 38.0005 54.2255 37.9944 54.2255 37.9874C54.2254 37.9733 54.2252 37.955 54.2249 37.9327C54.2243 37.8881 54.2231 37.8272 54.2209 37.7512C54.2166 37.5993 54.2081 37.3864 54.1918 37.1212C54.1592 36.5916 54.0948 35.8487 53.9675 34.9627C53.7148 33.2034 53.2047 30.8145 52.1602 28.3913C51.1156 25.9678 49.4953 23.4162 46.9733 21.4659C44.4165 19.4886 41.0793 18.2447 36.8357 18.2447V23.2447ZM51.7256 41.1574C54.2256 41.1574 54.2256 41.1585 54.2256 41.1595C54.2256 41.1598 54.2256 41.1608 54.2256 41.1613C54.2256 41.1624 54.2256 41.1633 54.2256 41.1641C54.2256 41.1656 54.2256 41.1663 54.2256 41.1663C54.2256 41.1664 54.2256 41.1636 54.2257 41.158C54.2258 41.1468 54.2263 41.1245 54.2272 41.0919C54.2292 41.0266 54.2335 40.9204 54.2426 40.7792C54.261 40.496 54.2986 40.0769 54.3755 39.5681C54.5311 38.538 54.8377 37.2066 55.426 35.9086C56.0126 34.6143 56.8428 33.4312 58.0105 32.5725C59.1498 31.7345 60.7565 31.0957 63.112 31.0957V26.0957C59.7743 26.0957 57.1111 27.0272 55.048 28.5446C53.0132 30.0411 51.7085 31.9985 50.8718 33.8446C50.0368 35.687 49.6318 37.496 49.4316 38.8212C49.3305 39.4902 49.2792 40.0524 49.2531 40.4562C49.24 40.6584 49.2331 40.8221 49.2295 40.9409C49.2277 41.0003 49.2267 41.0485 49.2262 41.0849C49.2259 41.103 49.2258 41.1182 49.2257 41.1304C49.2257 41.1364 49.2256 41.1417 49.2256 41.1462C49.2256 41.1485 49.2256 41.1506 49.2256 41.1524C49.2256 41.1534 49.2256 41.1546 49.2256 41.1551C49.2256 41.1563 49.2256 41.1574 51.7256 41.1574ZM63.112 31.0957C65.4675 31.0957 67.0742 31.7345 68.2135 32.5725C69.3811 33.4312 70.2114 34.6143 70.798 35.9086C71.3863 37.2066 71.6929 38.538 71.8485 39.5681C71.9254 40.0769 71.963 40.496 71.9814 40.7792C71.9905 40.9204 71.9948 41.0266 71.9967 41.0919C71.9977 41.1245 71.9981 41.1468 71.9983 41.158C71.9984 41.1636 71.9984 41.1664 71.9984 41.1663C71.9984 41.1663 71.9984 41.1656 71.9984 41.1641C71.9984 41.1633 71.9984 41.1624 71.9984 41.1613C71.9984 41.1608 71.9984 41.1598 71.9984 41.1595C71.9984 41.1585 71.9984 41.1574 74.4984 41.1574C76.9984 41.1574 76.9984 41.1563 76.9984 41.1551C76.9984 41.1546 76.9984 41.1534 76.9984 41.1524C76.9984 41.1506 76.9984 41.1485 76.9984 41.1462C76.9983 41.1417 76.9983 41.1364 76.9983 41.1304C76.9982 41.1182 76.998 41.103 76.9978 41.0849C76.9972 41.0485 76.9962 41.0003 76.9945 40.9409C76.9909 40.8221 76.984 40.6584 76.9709 40.4562C76.9448 40.0524 76.8935 39.4902 76.7924 38.8212C76.5922 37.496 76.1871 35.687 75.3521 33.8446C74.5154 31.9985 73.2108 30.0411 71.176 28.5446C69.1129 27.0272 66.4496 26.0957 63.112 26.0957V31.0957ZM19.4458 38.017V60H24.4458V38.017H19.4458ZM54.2256 41.1574V38.017H49.2256V41.1574H54.2256ZM71.9984 41.1574V60H76.9984V41.1574H71.9984Z" transform="translate(3 3)" fill="#2458DE"/>
</svg>
