<svg width="78" height="80" viewBox="0 0 78 80" fill="none" xmlns="http://www.w3.org/2000/svg">
<path d="M0 55.2511L55.0403 0" transform="translate(2 2)" stroke="#828282" stroke-opacity="0.99" stroke-width="5"/>
<path d="M51 0L70.9019 19.7175C73.223 22.0172 73.2774 25.7513 71.0242 28.1175L28.3706 72.9102C25.9965 75.4034 22.0158 75.3918 19.6563 72.8848L0 52" transform="translate(2.5 2)" stroke="#828282" stroke-opacity="0.99" stroke-width="5"/>
<circle cx="3.5" cy="3.5" r="3.5" transform="translate(26 48)" fill="#828282" fill-opacity="0.99"/>
<path d="M2.86405 1.5C3.24895 0.833333 4.2112 0.833333 4.5961 1.5L6.09439 4.09511C6.47929 4.76178 5.99816 5.59511 5.22836 5.59511H2.23179C1.46199 5.59511 0.98086 4.76178 1.36576 4.09511L2.86405 1.5Z" transform="translate(54.5502 23.2751) rotate(135)" fill="#828282" fill-opacity="0.99"/>
<path d="M2.86405 1.5C3.24895 0.833333 4.2112 0.833333 4.5961 1.5L6.09439 4.09511C6.47929 4.76178 5.99816 5.59511 5.22836 5.59511H2.23179C1.46199 5.59511 0.98086 4.76178 1.36576 4.09511L2.86405 1.5Z" transform="translate(52 31.2751) rotate(-45)" fill="#828282" fill-opacity="0.99"/>
<path d="M2.86405 1.5C3.24895 0.833333 4.2112 0.833333 4.5961 1.5L6.09439 4.09511C6.47929 4.76178 5.99816 5.59511 5.22836 5.59511H2.23179C1.46199 5.59511 0.98086 4.76178 1.36576 4.09511L2.86405 1.5Z" transform="translate(48.2751 26) rotate(45)" fill="#828282" fill-opacity="0.99"/>
<path d="M2.86405 1.5C3.24895 0.833333 4.2112 0.833333 4.5961 1.5L6.09439 4.09511C6.47929 4.76178 5.99816 5.59511 5.22836 5.59511H2.23179C1.46199 5.59511 0.98086 4.76178 1.36576 4.09511L2.86405 1.5Z" transform="translate(57.2751 28.5502) rotate(-135)" fill="#828282" fill-opacity="0.99"/>
</svg>
