<svg width="61" height="54" viewBox="0 0 61 54" fill="none" xmlns="http://www.w3.org/2000/svg">
<path d="M0 48L-2.4049 47.317L-3.30885 50.5H0V48ZM53 48V50.5H56.1884L55.4278 47.4037L53 48ZM43.7826 10.4727L46.2104 9.8764L45.7429 7.97272H43.7826V10.4727ZM10.6576 10.4727V7.97272H8.76874L8.25271 9.78974L10.6576 10.4727ZM0 50.5H53V45.5H0V50.5ZM55.4278 47.4037L46.2104 9.8764L41.3548 11.069L50.5722 48.5963L55.4278 47.4037ZM43.7826 7.97272H10.6576V12.9727H43.7826V7.97272ZM8.25271 9.78974L-2.4049 47.317L2.4049 48.683L13.0625 11.1557L8.25271 9.78974ZM23.0161 18.3273V4H18.0161V18.3273H23.0161ZM24.5161 2.5H29.3387V-2.5H24.5161V2.5ZM30.8387 4V18.3273H35.8387V4H30.8387ZM29.3387 2.5C30.1671 2.5 30.8387 3.17157 30.8387 4H35.8387C35.8387 0.410149 32.9285 -2.5 29.3387 -2.5V2.5ZM23.0161 4C23.0161 3.17157 23.6877 2.5 24.5161 2.5V-2.5C20.9263 -2.5 18.0161 0.410149 18.0161 4H23.0161Z" transform="translate(4 3)" fill="#E2D135"/>
</svg>
