<svg width="94" height="76" viewBox="0 0 94 76" fill="none" xmlns="http://www.w3.org/2000/svg">
<path d="M0 70L-2.44513 69.4791L-3.08869 72.5H0V70ZM86 70V72.5H89.0976L88.4436 69.4722L86 70ZM76.5104 15.8419L78.989 15.5157L78.7029 13.3419H76.5104V15.8419ZM9.48966 15.8419V13.3419H7.30295L7.0119 15.5091L9.48966 15.8419ZM0 72.5H86V67.5H0V72.5ZM88.4436 69.4722C84.1742 49.7053 81.9987 38.3842 78.989 15.5157L74.0317 16.1681C77.063 39.2001 79.2648 50.6587 83.5564 70.5278L88.4436 69.4722ZM76.5104 13.3419H9.48966V18.3419H76.5104V13.3419ZM7.0119 15.5091C4.21519 36.334 2.07921 48.2415 -2.44513 69.4791L2.44513 70.5209C6.99242 49.1756 9.15161 37.1417 11.9674 16.1746L7.0119 15.5091ZM30.45 26.5089V6.46155H25.45V26.5089H30.45ZM35 2.5H52V-2.5H35V2.5ZM55.98 6.46154V26.5089H60.98V6.46154H55.98ZM52 2.5C54.6633 2.5 55.3016 3.19006 55.4899 3.45555C55.8291 3.93373 55.98 4.76565 55.98 6.46154H60.98C60.98 4.89983 60.9429 2.50098 59.5682 0.562792C58.0425 -1.58809 55.4408 -2.5 52 -2.5V2.5ZM30.45 6.46155C30.45 4.97755 30.6897 4.11353 31.1122 3.60273C31.4561 3.18705 32.3535 2.5 35 2.5V-2.5C31.5424 -2.5 28.9148 -1.58507 27.2597 0.415621C25.6832 2.32119 25.45 4.68795 25.45 6.46155H30.45Z" transform="translate(4 3)" fill="#FFB800"/>
</svg>
