<svg width="166" height="189" viewBox="0 0 166 189" fill="none" xmlns="http://www.w3.org/2000/svg">
<path d="M0 0L22.5 29.5L39 50L51 68.5L61 87C73.6988 115.204 76 132 63.5 141.5C51 151 25.091 154.284 5.5 144" transform="translate(53 33.5)" stroke="black" stroke-width="10"/>
<path d="M107.5 0C64.7104 27.5639 44.0216 44.9943 14.5 80.5C60.0754 60.7831 78.5532 53.335 92 50C79.1025 64.1055 77.1747 67.8152 66.5 77.5C22.2004 117.691 3.31398 136.379 0 144.5C25.4936 138.171 43.125 129.768 75.5 113.426C114.871 93.6922 138.63 83.9244 155.5 80.5" transform="translate(9 19.5)" stroke="black" stroke-width="10"/>
<circle cx="11" cy="11" r="11" transform="translate(30.5)" fill="black"/>
</svg>
